<svg xmlns="http://www.w3.org/2000/svg" width="235.22" height="75.07" viewBox="0 0 235.22 75.07"><g transform="translate(-117.28 -433.15)"><path d="M1.45,0H29.3V-6.85H10.75V-35H1.45Zm39.5.6A10.387,10.387,0,0,0,49.05-3V0h8.9V-27.7h-8.9V-7.75a5.832,5.832,0,0,1-4.6,2.1C41.8-5.65,40-7.1,40-10.05V-27.7H31.1V-8.75C31.1-3.05,35,.6,40.95.6ZM60.8-29.65h8.9v-6.2H60.8ZM60.8,0h8.9V-27.7H60.8ZM85.85.7c7.95,0,12.8-3.95,12.8-9,0-6.1-5.9-7.6-10.95-8.7-3.85-.8-7.2-1.4-7.2-3.5,0-1.25,1.3-2.3,3.95-2.3,3.05,0,5.1,1.25,5.85,4.3h8c-1.1-6.25-6.25-9.9-14-9.9-7.55,0-12.25,3.65-12.25,8.75,0,6,5.9,7.4,10.95,8.45,3.85.8,7.2,1.45,7.2,3.75C90.2-6,88.85-4.9,85.7-4.9a5.489,5.489,0,0,1-5.8-4.9H71.8C72.85-2.8,78.3.7,85.85.7Zm61-.7h8.3V-19.5h-16.9v6.3h7.95c-1.1,4.7-4.05,7.05-7.9,7.05-4.9,0-7.95-3.7-7.95-11.3,0-7.65,3-11.3,7.9-11.3,3.6,0,6.55,2.25,7.55,6.55h9.25c-1.4-8.55-7.7-13.55-16.9-13.55-10.55,0-17.25,6.55-17.25,18.3C120.9-5.95,126.95.6,136.2.6A12.19,12.19,0,0,0,146.85-5ZM168.3,0h8.1l-.1-17.25-.1-8.6,2.3,8.6L183.3,0h8.05l4.8-17.25,2.3-8.6-.1,8.6L198.25,0h8.35V-35H193.75L190.6-23.45l-3.15,11.6-3.1-11.6L181.15-35H168.3Z" transform="translate(125 469)" fill="#fff"/><path d="M5.72.2C8.68.2,10.4-1.28,10.4-3.52c0-2.42-2.22-3.22-4.44-3.96C3.8-8.18,1.64-8.8,1.64-10.74c0-1.44,1.3-2.5,3.36-2.5,2.42,0,3.92,1.34,4.32,3.96h1.12C10.02-12.46,8.06-14.2,5-14.2,2.2-14.2.5-12.68.5-10.64.5-8.3,2.58-7.46,4.7-6.76c2.24.72,4.56,1.3,4.56,3.34C9.26-1.82,7.9-.76,5.7-.76,3.22-.76,1.82-2.08,1.42-4.8H.28C.7-1.52,2.58.2,5.72.2ZM20.9.22c3.26,0,5.78-2.36,5.78-7.22,0-4.84-2.52-7.22-5.78-7.22S15.12-11.84,15.12-7C15.12-2.14,17.64.22,20.9.22Zm0-1c-2.68,0-4.62-2.16-4.62-6.22s1.94-6.22,4.62-6.22c2.7,0,4.6,2.16,4.6,6.22S23.6-.78,20.9-.78ZM31.74,0h1.14V-6.66h5.34v-1H32.88v-5.36h7.58V-14H31.74ZM49.9,0h1.16V-13.02h4.82V-14H45.08v.98H49.9ZM63.66,0h1.46l1.54-6.36,1.52-6.42,1.5,6.42L71.24,0H72.7l3.24-14H74.82L73.38-7.62l-1.4,6.46L70.46-7.62,68.9-14H67.5L65.96-7.62,64.42-1.18,63.04-7.62,61.6-14H60.42ZM78.32,0H79.5l1.4-3.88h6.54L88.86,0H90.1L84.9-14H83.5Zm3.52-6.46,2.32-6.44L86.5-6.46l.6,1.64H81.24ZM94.68,0h1.14V-6.4h4.66c1.54,0,2.36.58,2.38,2.22A12.876,12.876,0,0,0,103.28,0h1.18A13.057,13.057,0,0,1,104-4.16c-.02-1.56-.6-2.4-1.74-2.72a3.412,3.412,0,0,0,2.2-3.42c0-2.36-1.6-3.7-3.96-3.7H94.68Zm5.72-13.04a2.668,2.668,0,0,1,2.92,2.84,2.669,2.669,0,0,1-2.92,2.84H95.82v-5.68ZM109.48,0h8.76V-.96h-7.62V-6.7H116v-.98h-5.38v-5.34h7.62V-14h-8.76ZM131.3,0h8.76V-.96h-7.62V-6.7h5.38v-.98h-5.38v-5.34h7.62V-14H131.3Zm13.82,0h1.04l-.02-6.26-.04-6.3,3.68,6.3L153.44,0h1.44V-14h-1.06l.02,6.26.04,6.32-3.68-6.3L146.52-14h-1.4ZM170.2,0h1.06V-6.96h-5.24V-6h4.16v.26c-.34,3.18-2.16,4.96-4.54,4.96-2.7,0-4.56-2.22-4.56-6.22s1.84-6.22,4.56-6.22c2.4,0,4.14,1.68,4.5,4.66h1.16c-.42-3.7-2.66-5.66-5.66-5.66-3.32,0-5.72,2.52-5.72,7.22,0,4.78,2.36,7.18,5.58,7.18a4.82,4.82,0,0,0,4.7-3.2Zm6.34,0h1.16V-14h-1.16Zm6.48,0h1.04l-.02-6.26-.04-6.3,3.68,6.3L191.34,0h1.44V-14h-1.06l.02,6.26.04,6.32-3.68-6.3L184.42-14h-1.4Zm15.06,0h8.76V-.96h-7.62V-6.7h5.38v-.98h-5.38v-5.34h7.62V-14h-8.76ZM211.9,0h8.76V-.96h-7.62V-6.7h5.38v-.98h-5.38v-5.34h7.62V-14H211.9Zm13.82,0h1.14V-6.4h4.66c1.54,0,2.36.58,2.38,2.22A12.876,12.876,0,0,0,234.32,0h1.18a13.057,13.057,0,0,1-.46-4.16c-.02-1.56-.6-2.4-1.74-2.72a3.412,3.412,0,0,0,2.2-3.42c0-2.36-1.6-3.7-3.96-3.7h-5.82Zm5.72-13.04a2.668,2.668,0,0,1,2.92,2.84,2.669,2.669,0,0,1-2.92,2.84h-4.58v-5.68Z" transform="translate(117 508)" fill="#fff"/><path d="M.5,22h-1V0h1Z" transform="translate(287.5 440.5)" fill="#fff"/><path d="M2,0A2,2,0,1,1,0,2,2,2,0,0,1,2,0Z" transform="translate(233 448)" fill="#fff"/></g></svg>